<svg width="20" height="21" viewBox="0 0 20 21" stroke="white" fill="none" xmlns="http://www.w3.org/2000/svg">
<path d="M3 14.5V12.5M10 19.5V17.5M17 11.5V9.5M3 6.5V4.5M10 11.5V9.5M17 3.5V1.5M5 7.1V11.9C5 12.0591 4.93679 12.2117 4.82426 12.3243C4.71174 12.4368 4.55913 12.5 4.4 12.5H1.6C1.44087 12.5 1.28826 12.4368 1.17574 12.3243C1.06321 12.2117 1 12.0591 1 11.9V7.1C1 6.94087 1.06321 6.78826 1.17574 6.67574C1.28826 6.56321 1.44087 6.5 1.6 6.5H4.4C4.55913 6.5 4.71174 6.56321 4.82426 6.67574C4.93679 6.78826 5 6.94087 5 7.1ZM12 12.1V16.9C12 17.0591 11.9368 17.2117 11.8243 17.3243C11.7117 17.4368 11.5591 17.5 11.4 17.5H8.6C8.44087 17.5 8.28826 17.4368 8.17574 17.3243C8.06321 17.2117 8 17.0591 8 16.9V12.1C8 11.9409 8.06321 11.7883 8.17574 11.6757C8.28826 11.5632 8.44087 11.5 8.6 11.5H11.4C11.5591 11.5 11.7117 11.5632 11.8243 11.6757C11.9368 11.7883 12 11.9409 12 12.1ZM19 4.1V8.9C19 9.05913 18.9368 9.21174 18.8243 9.32426C18.7117 9.43679 18.5591 9.5 18.4 9.5H15.6C15.5212 9.5 15.4432 9.48448 15.3704 9.45433C15.2976 9.42417 15.2315 9.37998 15.1757 9.32426C15.12 9.26855 15.0758 9.20241 15.0457 9.12961C15.0155 9.05681 15 8.97879 15 8.9V4.1C15 4.02121 15.0155 3.94319 15.0457 3.87039C15.0758 3.79759 15.12 3.73145 15.1757 3.67574C15.2315 3.62002 15.2976 3.57583 15.3704 3.54567C15.4432 3.51552 15.5212 3.5 15.6 3.5H18.4C18.5591 3.5 18.7117 3.56321 18.8243 3.67574C18.9368 3.78826 19 3.94087 19 4.1Z" stroke-width="1.5" stroke-linecap="round" stroke-linejoin="round"/>
</svg>
