<svg width="24" height="17" viewBox="0 0 24 17" stroke="white" fill="none" xmlns="http://www.w3.org/2000/svg">
<path d="M0.856934 8.63097H4.61122C4.7693 8.62916 4.92405 8.58533 5.05961 8.504C5.19516 8.42266 5.30665 8.30674 5.38265 8.16812L8.46836 1.99669C8.54441 1.84304 8.66565 1.71633 8.81581 1.63359C8.96597 1.55085 9.13784 1.51604 9.30836 1.53383C9.4782 1.54531 9.6403 1.60918 9.77232 1.71664C9.90434 1.8241 9.99979 1.96986 10.0455 2.13383L13.8684 14.8538C13.9185 15.0264 14.0217 15.1788 14.1632 15.2895C14.3047 15.4003 14.4774 15.4637 14.6569 15.471C14.8252 15.4654 14.9881 15.4104 15.1252 15.3128C15.2624 15.2153 15.3679 15.0795 15.4284 14.9224L17.7769 9.17955C17.8416 9.01845 17.9528 8.88025 18.0962 8.78256C18.2397 8.68486 18.4091 8.63209 18.5826 8.63097H23.1426" stroke-width="1.71429" stroke-linecap="round" stroke-linejoin="round"/>
</svg>
